<svg id="Layer_5" data-name="Layer 5" xmlns="http://www.w3.org/2000/svg" viewBox="0 0 42.88 26.91"><defs><style>.cls-1{fill:#fff;}</style></defs><path class="cls-1" d="M46.43,36.61a1.58,1.58,0,0,1-1.11,1.81,1,1,0,0,1-.72-.15,3.43,3.43,0,0,1-.68-.69L26.29,15.64c-1.06-1.3-1.53-1.31-2.57,0L6.08,37.57a3.67,3.67,0,0,1-.67.69,1.07,1.07,0,0,1-1.54-.35,1.75,1.75,0,0,1,0-1.95,4,4,0,0,1,.33-.47q9-11.22,18-22.42a3.21,3.21,0,0,1,4.71-.83,5.55,5.55,0,0,1,.94,1q9,11.13,17.92,22.27A7.62,7.62,0,0,1,46.43,36.61Z" transform="translate(-3.56 -11.54)"/></svg>