<svg id="Layer_1" data-name="Layer 1" xmlns="http://www.w3.org/2000/svg" viewBox="0 0 44.41 43.31"><defs><style>.cls-1{fill:#181616;fill-rule:evenodd;}</style></defs><path class="cls-1" d="M25,3.35a22.21,22.21,0,0,0-7,43.27c1.11.2,1.52-.49,1.52-1.07s0-1.93,0-3.78c-6.18,1.34-7.48-3-7.48-3a5.86,5.86,0,0,0-2.47-3.24c-2-1.38.16-1.35.16-1.35a4.66,4.66,0,0,1,3.4,2.28c2,3.4,5.19,2.42,6.46,1.85a4.71,4.71,0,0,1,1.41-3c-4.93-.56-10.12-2.46-10.12-11a8.58,8.58,0,0,1,2.29-6,8,8,0,0,1,.22-5.88s1.86-.59,6.1,2.28a21,21,0,0,1,11.12,0c4.24-2.87,6.1-2.28,6.1-2.28a8,8,0,0,1,.22,5.88,8.57,8.57,0,0,1,2.28,6c0,8.53-5.19,10.4-10.13,11a5.34,5.34,0,0,1,1.5,4.12c0,3,0,5.36,0,6.09s.4,1.28,1.52,1.06A22.2,22.2,0,0,0,25,3.35Z" transform="translate(-2.8 -3.35)"/></svg>