<svg id="Layer_3" data-name="Layer 3" xmlns="http://www.w3.org/2000/svg" viewBox="0 0 41.62 41.62"><path d="M42.23,45.81H7.77a1.34,1.34,0,0,0-.18-.07,4.29,4.29,0,0,1-2.45-1.48,5.12,5.12,0,0,1-.95-2V7.77a.91.91,0,0,0,.07-.14A4.18,4.18,0,0,1,8.48,4.19h33a4.63,4.63,0,0,1,1.12.12,4.2,4.2,0,0,1,3.17,4.2v33c0,.12,0,.24,0,.36a4.16,4.16,0,0,1-1.41,2.92A5,5,0,0,1,42.23,45.81Zm-2.69-6.26c0-.13,0-.2,0-.28,0-3.85,0-7.7,0-11.55A7,7,0,0,0,37,22.18a6.45,6.45,0,0,0-8.13-.56,18.82,18.82,0,0,0-1.73,1.52V20.88H20.88V39.54h6.21V39c0-3.36,0-6.72,0-10.08a7.31,7.31,0,0,1,0-.81A3.13,3.13,0,0,1,31,25.56a3.17,3.17,0,0,1,2.29,3.22V39.55ZM10.47,20.86V39.53h6.18V20.86Zm6.82-7.3a3.74,3.74,0,1,0-3.75,3.73A3.75,3.75,0,0,0,17.29,13.56Z" transform="translate(-4.19 -4.19)"/></svg>