<svg id="Layer_4" data-name="Layer 4" xmlns="http://www.w3.org/2000/svg" viewBox="0 0 36 41.38"><path d="M0,20.7V.7A.69.69,0,0,1,.72,0h34.7A.67.67,0,0,1,36,.7V40.77a.9.9,0,0,1-.09.33.54.54,0,0,1-.5.31H.6A.59.59,0,0,1,0,40.78ZM34.75,1.3H1.33V40.1H34.75Z" transform="translate(-0.04 -0.03)"/><path d="M12.55,10.8c.23.14.46.26.68.41a4.91,4.91,0,0,1,2.06,3.11,8.45,8.45,0,0,1,.11,1.88.64.64,0,0,1-.64.6H6.08a.68.68,0,0,1-.68-.66V14.81a4.91,4.91,0,0,1,1.12-2.66,5,5,0,0,1,1.63-1.3h.08A3.11,3.11,0,0,1,7.35,8,2.88,2.88,0,0,1,8.4,6.23a3.09,3.09,0,0,1,4,0,3,3,0,0,1,1,2.25A3.08,3.08,0,0,1,12.55,10.8Zm1.54,4.67a3.64,3.64,0,0,0-2-3.38,3.51,3.51,0,0,0-4.22.56,3.56,3.56,0,0,0-1.18,2.82Zm-3.7-5.14a1.77,1.77,0,0,0,.27-3.53h-.27a1.77,1.77,0,0,0,0,3.53Z" transform="translate(-0.04 -0.03)"/><path d="M18,19.7H30.33a.66.66,0,0,1,.56,1.08.58.58,0,0,1-.47.24H5.69a.66.66,0,1,1,0-1.32H18Z" transform="translate(-0.04 -0.03)"/><path d="M21.94,30.76H13.52a.64.64,0,0,1-.67-.61v0a.63.63,0,0,1,.6-.66H30.38a.65.65,0,0,1,.66.64v.05a.67.67,0,0,1-.66.63Z" transform="translate(-0.04 -0.03)"/><path d="M13.09,35.64H5.69a.66.66,0,0,1,0-1.32h14.8a.66.66,0,0,1,0,1.32h-7.4Z" transform="translate(-0.04 -0.03)"/><path d="M23,25.88H15.78a.64.64,0,0,1-.67-.61v-.05a.63.63,0,0,1,.6-.66H30.37a.66.66,0,0,1,.67.65v0a.65.65,0,0,1-.67.63H23Z" transform="translate(-0.04 -0.03)"/><path d="M24.6,6.18h5.78a.66.66,0,1,1,.16,1.31H18.8a.66.66,0,1,1-.16-1.31h6Z" transform="translate(-0.04 -0.03)"/><path d="M24.61,10.49h5.77a.69.69,0,0,1,.68.67.67.67,0,0,1-.67.65H18.83a.66.66,0,1,1-.21-1.3h6Z" transform="translate(-0.04 -0.03)"/><path d="M24.61,14.8h5.8a.68.68,0,0,1,.65.59.66.66,0,0,1-.48.7,1.22,1.22,0,0,1-.27,0H18.86a.66.66,0,0,1-.73-.57v-.08a.63.63,0,0,1,.59-.67h5.89Z" transform="translate(-0.04 -0.03)"/><path d="M9.65,25.88h-4A.67.67,0,0,1,5,25.23H5a.67.67,0,0,1,.67-.66h8a.66.66,0,0,1,0,1.32h-4Z" transform="translate(-0.04 -0.03)"/><path d="M26.63,35.64H22.89a.66.66,0,0,1,0-1.32h7.47a.66.66,0,0,1,.61.35.67.67,0,0,1-.06.72.58.58,0,0,1-.5.25Z" transform="translate(-0.04 -0.03)"/><path d="M8.41,30.76H5.69a.66.66,0,1,1,0-1.32h5.43a.66.66,0,1,1,.16,1.31.43.43,0,0,1-.16,0Z" transform="translate(-0.04 -0.03)"/></svg>