<svg id="Layer_2" data-name="Layer 2" xmlns="http://www.w3.org/2000/svg" viewBox="0 0 46.1 32.09"><path d="M2,27V23c0-.44.06-.89.1-1.33.21-2.24.38-4.49.65-6.71a5.9,5.9,0,0,1,3.13-4.68,7.07,7.07,0,0,1,3-.76C12.19,9.3,15.58,9,19,9c5.13-.07,10.26,0,15.39.09,2.6.06,5.21.33,7.8.62a5.51,5.51,0,0,1,5,4.55c.37,1.8.52,3.65.72,5.48.11,1,.14,2.06.2,3.09V27a4.36,4.36,0,0,0-.07.62,56.93,56.93,0,0,1-.66,7.48c-.53,3.12-2.3,5-5.41,5.3s-6,.56-9,.61Q25,41.12,17.1,41c-3-.06-6-.33-9-.62a5.67,5.67,0,0,1-5.29-4.9c-.32-1.76-.46-3.56-.64-5.35C2,29.06,2,28,2,27Zm18.47-8.88V31.92l12-6.92Z" transform="translate(-1.95 -8.95)"/></svg>